<?xml version="1.0" encoding="UTF-8"?>
<svg version="1.1" viewBox="0 0 2048 2048" width="512" height="512" xmlns="http://www.w3.org/2000/svg">
<path transform="translate(981,96)" d="m0 0h23l19 3 18 6 19 10 11 8 10 8v2l3 1 9 11 8 11 8 15 6 16 4-2 9-8 14-8 15-6 17-3h20l17 3 15 6 15 9 12 11 8 9 8 13 5 11 4 13 2 13v16l-2 9 17-8 15-5 13-3 10-1h22l19 3 16 5 17 8 17 11 10 9 9 9 10 14 10 19 5 15 4 18v7l5-3 10-7 17-8 16-4h31l16 4 12 5 13 8 11 9 10 11 10 16 6 16 3 14v24l-3 16-6 16-6 10-6 8h-2v2l12 2 18 6 11 6 11 8 10 9 10 13 8 15 5 15 2 11v22l-2 12-5 15-8 16-11 14-4 4-1 3 5 2 12 11 8 13 5 15 1 5v14l-3 14-8 16-7 9-8 7-16 8-11 3-11 1v8l-30 180-1 4h159v-263l4-10 11-12 124-124 8-5 7-2h11l9 3 9 6 6 9 3 9v10l-4 10-4 6-9 10-103 103h-2v2l-5 5-1 243h102l16 3 15 8 12 11 9 14 5 14 1 6v14l-3 14-8 16-8 10-9 7-5 2-3 22-3 23-9 78-32 288-6 62-5 41-6 51-30 269-1 6-2 1h-445l-2-4-19-170-1-18h-267v95l-28 6-13 5-12 7-9 7-12 12-9 14-6 13-4 15-3 17-2 1h-829l-2-5-5-25-7-16-7-11-9-10-7-7-14-9-13-6-15-4-17-3-1-1v-254l1-1 19-3 16-5 16-8 14-11 10-11 9-15 6-15 3-12 2-15 1-1h275l-4-20-12-76-94-564-7-44-16-2-13-5-13-9-9-10-8-14-4-15v-18l3-12 8-16 11-12 2-1v-3l-12-9-15-15-10-14-7-12-6-15-4-16-2-13v-27l4-21 6-16 8-16 10-14 12-13 12-10 18-11 20-8 11-3-4-18-1-7v-20l4-18 6-15 9-14 11-12 9-8 13-8 14-6 12-3 10-1h16l14 2 18 6-5-13-3-17v-22l4-18 5-12 8-14 13-15 13-10 10-6 16-6 16-3h22l16 3 15 6 15 9 12 11 7 8h2l3-6 8-12 12-14 10-9 16-11 16-8 15-5 13-3 11-1h21l19 3 16 5 17 8 15 10 13 11 4 5 3 1 1-9 5-16 5-11 7-13 9-12 11-12 12-10 18-11 14-6 13-4 10-2z" fill="#D1D2D2"/>
<path transform="translate(981,96)" d="m0 0h23l19 3 18 6 19 10 11 8 10 8v2l3 1 9 11 8 11 8 15 6 16 4-2 9-8 14-8 15-6 17-3h20l17 3 15 6 15 9 12 11 8 9 8 13 5 11 4 13 2 13v16l-2 9 17-8 15-5 13-3 10-1h22l19 3 16 5 17 8 17 11 10 9 9 9 10 14 10 19 5 15 4 18v7l5-3 10-7 17-8 16-4h31l16 4 12 5 13 8 11 9 10 11 10 16 6 16 3 14v24l-3 16-6 16-6 10-6 8h-2v2l12 2 18 6 11 6 11 8 10 9 10 13 8 15 5 15 2 11v22l-2 12-5 15-8 16-11 14-5 5-7-1-9-2-11-1h-1160l-84-1h-52l-17 4-10 5-5-2-11-9-14-14-10-14-7-12-6-15-4-16-2-13v-27l4-21 6-16 8-16 10-14 12-13 12-10 18-11 20-8 11-3-4-18-1-7v-20l4-18 6-15 9-14 11-12 9-8 13-8 14-6 12-3 10-1h16l14 2 18 6-5-13-3-17v-22l4-18 5-12 8-14 13-15 13-10 10-6 16-6 16-3h22l16 3 15 6 15 9 12 11 7 8h2l3-6 8-12 12-14 10-9 16-11 16-8 15-5 13-3 11-1h21l19 3 16 5 17 8 15 10 13 11 4 5 3 1 1-9 5-16 5-11 7-13 9-12 11-12 12-10 18-11 14-6 13-4 10-2z" fill="#FDCA0A"/>
<path transform="translate(342,674)" d="m0 0h52l97 1h1147l15 2 12 3v2l5 2 12 11 8 13 5 15 1 5v14l-3 14-8 16-7 9-8 7-16 8-11 3-11 1v8l-30 180-2 4-197 1h-33l-13-1-1-4 4-33 13-130 3-25h-78l-180-1 1 1v31l-3 89-2 50-2 74-2 51-1 44-2 63v18l-3 88-1 36-2 50-3 94-2 60-1 47-7-1-20-9v-2l-5-2-13-12-6-8-2-1-6-11-1-4h-2l-6-20-4-21-98 1h-38l-1-12-4-135-2-69-12-361-4-118-1-11-47 1h-206l-1 1 1 19 5 49 6 58 5 52 11 109 7 71 4 41 5 49 5 53 7 66 6 59 8 68v9h-210l-2-5-4-22-13-81-92-552-7-44-16-2-13-5-13-9-9-10-8-14-4-15v-18l3-12 8-16 11-12 8-6 14-5z" fill="#B1B3B2"/>
<path transform="translate(1314,1113)" d="m0 0 9 3 8 2 10 1h582l11-1 16-5-2 20-3 23-9 78-32 288-6 62-5 41-6 51-30 269-1 6-2 1h-445l-2-4-19-170-1-18h-107v-9l7-66 23-230 13-128 6-58v-18l-4-43-8-65z" fill="#6E3F15"/>
<path transform="translate(1914,576)" d="m0 0h11l9 3 9 6 6 9 3 9v10l-4 10-4 6-9 10-103 103h-2v2l-5 5-1 243h102l16 3 15 8 12 11 9 14 5 14 1 6v14l-3 14-8 16-8 10-9 7-5 2v2l-11 4-6 2-11 1h-582l-15-2-12-5 2 13 11 91 3 34v18l-11 106-11 111-17 168-8 80-3 26h-160v95l-28 6-13 5-12 7-9 7-12 12-9 14-6 13-4 15-3 17-2 1h-147l-11-1v-445l2-1h21l10-1h126l4 15 4 17 2 5v4h2l6 11 1 4 3 1 8 10 10 9 5 3v2l5 1 17 8 5 1v-47l3-85 3-99 1-20 3-99 1-37 1-44 1-25 1-44 3-81 1-44 3-75 2-64v-31l-5-1v-1l185 1h72l6 1-1 14-10 100-6 59-2 18 13 1h230l1-3v3h159v-263l4-10 11-12 124-124 8-5z" fill="#D2D2D2"/>
<path transform="translate(1419,281)" d="m0 0 5 2 10 9 9 9 10 14 10 19 5 15 4 18v7l5-3 10-7 17-8 16-4h31l16 4 12 5 13 8 11 9 10 11 10 16 6 16 3 14v24l-3 16-6 16-6 10-6 8h-2v2l12 2 18 6 11 6 11 8 10 9 10 13 8 15 5 15 2 11v22l-2 12-5 15-8 16-11 14-5 5-7-1-9-2-11-1h-1160l-84-1h-52l-17 4-10 5-5-2-5-4v-5l-5-1v-2h-2l-3-5-3-1v-3h-2l-3-8-2-4h-2l-2-5h-2l-2-7h-2l-5-14-3-5-1-4h-2l1-5 7-2 18 2 13-1 14-3 4-2 13-2h26l13-2 7-2v-3l3-1h7l9 1-2-4 4-2h13l10 3 14 1h6v2l9 1v-2h13l7 3 16-4 13-4 18-1 27-3 27-2 24-3 26-4 28-6 33-6 37-8 15-3 21-5 1-3-9-5-10-10-4-9v-15l4-10 5-6 5-4 8-4 5-1h8l10 2 8 6 7 10 4 12v9l-4 9-4 7-3 3 11-2 5-2 28-6 31-8 20-6 18-5 21-7 17-5 41-14 42-15 12-5 50-19 12-5 27-11 21-9 10-5 28-13 8-4h2l1-2h4v-2l14-7h3l1-3 23-12 11-6v-2l32-13 9-3 14-5 6-2 10-5 15-6 5-3 5-2 2-2 6-2 14-7 3-3 5-3 11-7 4-3 1-2 5-2 2-6h9l5-1 6 1z" fill="#FDB804"/>
<path transform="translate(679,1486)" d="m0 0 2 4 1 11 5 2 143 1h16l17 1v5l-5 3-11 19-10 16-12 20-9 13-12 17-10 13-8 10-13 16-24 26-20 20-8 7-15 13-10 9-10 8-20 15-23 15h-2v2h-2v-47l1-40 1-1 67-1 13-4 5-4 7-11 2-5v-14l-6-12-7-7-9-4-4-1h-195l-13 2-9 5-5 4-5 9-1 3v15l4 10 8 8 11 5 5 1 66 1 1 6v118l-1 2-12 5-16 8-27 11-34 12-27 8-30 7-41 8-30 4h-5l-1-106v204l-3 1h-156l-2-5-5-25-7-16-7-11-9-10-7-7-14-9-13-6-15-4-17-3-1-1v-254l1-1 19-3 16-5 16-8 14-11 10-11 9-15 6-15 3-12 2-15 1-1 276-1 211 1z" fill="#E5E7E7"/>
<path transform="translate(881,799)" d="m0 0h237l1 1v31l-3 89-2 50-2 74-2 51-1 44-2 63v18l-3 88-1 36-2 50-3 94-2 60-1 47-7-1-20-9v-2l-5-2-13-12-6-8-2-1-6-11-1-4h-2l-6-20-4-21-98 1h-38l-1-12-4-135-2-69-12-361-4-118v-10z" fill="#FD2E61"/>
<path transform="translate(540,799)" d="m0 0h62l5 1 2 8 11 111 10 100 11 109 6 63 6 58 5 53 7 66 6 59 8 68v9h-210l-2-5-4-22-13-81-98-588v-8z" fill="#FD2F62"/>
<path transform="translate(1366,1574)" d="m0 0 19 4 29 7 57 12 43 8 44 7 54 7 48 5 50 4 68 3h90l23-1v11l-11 97-23 207-1 6-2 1h-445l-2-4-19-170-3-23-2-18-6-58-11-104z" fill="#6E4015"/>
<path transform="translate(610,799)" d="m0 0h253l1 2 1 9 8 239 10 302v7l-2 3-10 3-28 12-45 18-23 8-28 9-24 7-35 9-12 2-3-1-1 3-2-4-9-86-7-71-5-48-6-63-10-100-12-119-5-52-6-61-2-19v-7z" fill="#E6E7E7"/>
<path transform="translate(1914,576)" d="m0 0h11l9 3 9 6 6 9 3 9v10l-4 10-4 6-9 10-103 103h-2v2l-5 5-1 243h102l16 3 15 8 12 11 9 14 5 14 1 6v14l-3 14-8 16-8 10-9 7-5 2v2l-11 4-6 2-11 1h-582l-15-2-12-5-1 2-3-5-12-10-8-10-6-10-4-14v-22l4-12 6-11 6-8 7-7 11-7 16-5 7-1 19-1h244l1-3v3h159v-263l4-10 11-12 124-124 8-5z" fill="#B1B3B2"/>
<path transform="translate(896,1504)" d="m0 0h127l4 15 4 17 2 5v4h2l6 11 1 4 3 1 8 10 10 9 5 3v2l5 1 19 9 26 6 2 4v250l-28 6-13 5-12 7-9 7-12 12-9 14-6 13-4 15-3 17-2 1h-147l-11-1v-445l2-1h21z" fill="#3BA3F2"/>
<path transform="translate(193,1504)" d="m0 0h150l8 1 1 9v437l-3 1h-156l-2-5-5-25-7-16-7-11-9-10-7-7-14-9-13-6-15-4-17-3-1-1v-254l1-1 19-3 16-5 16-8 14-11 10-11 9-15 6-15 3-12 2-15z" fill="#46BCFE"/>
<path transform="translate(1343,1368)" d="m0 0 5 1 58 28 13 6 32 14 33 14 30 12 40 15 43 15 50 16 27 8 38 10 39 10 31 7 43 9 42 8 24 4 10 2-1 16-5 48-3 21-2-1-22 1h-90l-68-3-61-5-54-6-57-8-57-10-49-10-39-9-25-6-2-1-6-50-13-116-4-38z" fill="#FDCA0A"/>
<path transform="translate(1113,798)" d="m0 0 185 1h72l6 1v6h-2l-1 13-3 3-2-3-3-1-1 6-5 15-6 16-6 13-11 27-7 14-11 23-14 27-13 22-6 11-12 19-14 21-11 16-33 44-13 16-9 10-12 14-11 12-7 8-39 39-7 6-4 5-4 1-1 4v-68l1-44 3-81 1-44 3-75 2-64v-31l-5-1z" fill="#E5E7E7"/>
<path transform="translate(1105,1199)" d="m0 0 2 1v20l-3 88-1 36-2 50-3 94-2 60-1 47-7-1-20-9v-2l-5-2-13-12-6-8-2-1-6-11-1-4h-2l-6-20-4-21-98 1h-38l-1-12-4-135 1-16h1l1 12 2-1h6v-2l12-6h4v-3l7-2 4-4h2v-2l7-3 5-3h2l1-3h5l1-3 5-2 5-5 7-2v-2h3v-2l4-1 5-5 14-7h2v-2h2v-2l6-3 4-1 5-5 7-4 4-5 3-1 2-3 7-4 3-1 5-5 6-3 6-7 9-2v-2h2l1-5 7-4 6-2 4-1 2-5h3l1-2 1-1 11-2 8-4 1-2z" fill="#E3255F"/>
<path transform="translate(1406,799)" d="m0 0h227l-4 27-27 162-2 4-197 1h-33l-13-1-1-4 4-33 13-130 3-25z" fill="#E3255F"/>
<path transform="translate(1782,96)" d="m0 0h18l14 3 16 8 11 10 7 10 6 13 2 9v22l-2 10 11 11 10 14 7 14 4 15 2 14v7h8l16 4 12 6 11 9 9 12 6 13 2 9v22l-4 14-6 11-11 12-10 8-12 5-6 2-8 1h-17l-12-3-14-7-10-8-8-10-5-10-18 5-9 1h-23l-15-3-15-6-13-8-11-9-7-7-10-15-8-19-4-18v-22l4-19 6-14 9-14 9-10 6-6-1-8-1-5v-18l4-15 6-12 11-12 7-6 14-7z" fill="#FDCA0A"/>
<path transform="translate(215,1120)" d="m0 0h16l15 3 16 8 11 10 7 10 6 13 2 9v21l-3 12-7 14-5 5 1 4 9 18 19 2 15 5 10 6 10 9 7 10 6 13 2 9v22l-4 14-6 11-11 12-10 8-12 5-6 2-8 1h-17l-12-3-16-8-3-3-5 1-12 6-15 5-14 2h-22l-15-3-17-7-11-7-11-9-7-7-10-15-8-19-4-18v-22l4-18 6-15 9-14 9-11 14-11 14-8 7-3 2-19 4-12 6-11 11-12 8-6 12-6z" fill="#FDCA0A"/>
<path transform="translate(247,96)" d="m0 0h17l14 3 16 8 11 10 7 10 6 13 2 9v22l-4 14-6 11-10 12-11 8-1 21-4 17-5 13-10 16-12 13-12 9-15 8-15 5-14 2h-22l-14-3-14-5-14-8-13-11-9-10-8-14-7-16-4-18v-22l4-18 6-15 9-14 11-12 9-8 13-8 14-6 12-3 26-2 9-11 7-7 13-8 12-4z" fill="#FDCA0A"/>
<path transform="translate(1914,576)" d="m0 0h11l9 3 9 6 6 9 3 9v10l-4 10-4 6-9 10-103 103h-2v2l-5 5-1 231-1 12-3 1h-54l-6-1v-263l4-10 11-12 124-124 8-5z" fill="#53DBC3"/>
<path transform="translate(514,1600)" d="m0 0h195l11 4 8 7 4 5 4 9v14l-6 12-5 6-6 4-11 3-67 1-1 40v127l-6 12-5 5-5 4-10 4h-12l-12-5-9-8-4-8-1-5-1-23v-144h-66l-10-3-8-5-7-7-4-10v-15l4-9 5-6 10-6 5-2z" fill="#FFC482"/>
<path transform="translate(1330,1259)" d="m0 0h1l3 14 4 42 5 46 2 21 8 69 10 91 8 70 11 106 3 31 1 11h-106v-9l7-66 23-230 13-128z" fill="#E2255E"/>
<path transform="translate(96,1601)" d="m0 0h1v227l16 2 9 3 22 5 25 5 33 6 21 3 29 2h98l1 1 1 96-3 1h-156l-2-5-5-25-7-16-7-11-9-10-7-7-14-9-13-6-15-4-17-3-1-1z" fill="#3BA3F3"/>
<path transform="translate(669,1426)" d="m0 0 2 1 8 68v9h-208l4-4 4-2-5-13v-4l-3-1v-2l-2-1-2-8 1-2h2v-7l2-7h3l1-2 5-1 21-4 9-2 29-1h13l8-1 16-1 11-3 23-5 4-1 10-2 8-2 6 1 2-1h15l8 3v-2l5 2z" fill="#E3255F"/>
<path transform="translate(284,103)" d="m0 0 5 1 8 6 8 7 7 10 6 13 2 9v22l-4 14-6 11-10 12-11 8-1 21-4 17-5 13-10 16-12 13-12 9-15 8-15 5-14 2h-22l-14-3-14-5-14-8-13-11 2-7 5-3 13 5 11 2 14-1 16-6 5-2v-2l12-4 10-4 10-8 11-12 8-14 6-15 2-10 4-8 2-8h2l1-6h3l2-4-1-2 6-7 3-5 3-3 8-15 2-4 3-21 1-4-5-10v-3l-2-1 2-7z" fill="#FDB804"/>
<path transform="translate(313,1254)" d="m0 0 6 1 9 6 9 8 7 10 6 13 2 9v22l-4 14-6 11-11 12-10 8-12 5-6 2-8 1h-17l-12-3-16-8-3-3-5 1-12 6-15 5-14 2h-22l-15-3-17-7-11-7-10-8-1-5 2-6 10 1 7 3 4 1h19l20-6 12-5 15-3v2h7l9 2 3 2 14 2 9 1v-1l5-1-1-2h6v2l9-3v-1l8-2v-2l4-1 1 1 4-4 6-2 3-4h2l2-5 3-3 3-7 4-2 2-9 2-7-1-9-2-3v-7h-3l-1-5z" fill="#FDB804"/>
<path transform="translate(1914,262)" d="m0 0 5 1 9 6 8 7 9 13 5 11 2 9v22l-4 14-6 11-11 12-10 8-12 5-6 2-8 1h-17l-12-3-14-7-10-8-8-10 2-10 5-1 5 3 8 2h11l11-4 3-3 14-10 5-5h2l2-4 2-6 7-10 5-12 2-5-1-5v-3l-1-5-4-7v-8z" fill="#FDB804"/>
<path transform="translate(344,671)" d="m0 0h167l210 1h645l125-1h87l41 1 27 2 15 3 4 3-7-1-9-2-11-1h-1160l-84-1h-52l-17 4-10 5h-2v-2l17-7z" fill="#FECB0A"/>
<path transform="translate(481,507)" d="m0 0 10 2 9 4 1 3 3 1 5 8 4 9 1 14-1 6-4 10-5 6-5 4-13 4h-11l-11-4-11-9-4-5-2-17 2-15 2-4h2l2-4h2v-2l7-5 13-5z" fill="#FEB804"/>
<path transform="translate(768,282)" d="m0 0h9l6 2 7 6 5 3 4 6 3 16v9l-4 12-5 6h-2l-1 3-5 4-10 4h-15l-11-6-5-4v-2l-4-2-3-4-1-7v-17l3-10 4-5 10-8 8-2v-2z" fill="#FEB804"/>
<path transform="translate(639,380)" d="m0 0h10l12 5 5 6 7 21v12l-5 9-9 10-9 5-4 1h-12l-14-7-4-3v-2l-4-2-3-7-2-19 2-9 7-8 5-4h2v-2z" fill="#FEB804"/>
<path transform="translate(1086,316)" d="m0 0h9l13 5 6 7 4 10 3 10v10l-4 10-9 10-9 5-7 2h-8l-9-3-6-4-9-8-4-9-1-15 4-12h2l2-4 4-4h2v-2h2v-2z" fill="#FEB804"/>
<path transform="translate(217,1695)" d="m0 0h11l10 3 6 4 7 7 5 10 1 3v12l-4 10-7 8-9 6-9 3h-8l-13-4-10-9-5-9-1-6v-11l4-11 9-10 9-5z" fill="#FFC482"/>
<path transform="translate(985,1695)" d="m0 0h11l10 3 9 7 6 7 4 12v10l-4 10-9 10-11 6-4 1h-10l-13-5-9-8-5-10-1-7v-8l3-9 4-6 7-7z" fill="#FFC482"/>
<path transform="translate(891,350)" d="m0 0h14l9 4 3 2 6 11 5 13v12l-3 6-6 9h-2l-1 3-12 6h-16l-10-5-10-9-5-13v-12l5-11 5-6 10-7z" fill="#FEB804"/>
<path transform="translate(1050,513)" d="m0 0h10l8 2 8 6 7 9 3 9 1 9-3 9-5 8-8 6-6 3-4 1h-11l-12-5-5-5-6-8-2-7v-10l2-9 6-9 11-7z" fill="#DE8038"/>
<path transform="translate(1280,449)" d="m0 0 12 3 6 4 4 4v2l3 1 3 8 2 8v9l-4 8-6 7-9 6-5 2h-13l-12-6-4-4v-2h-2l-5-9-1-5 1-14 4-9h2l2-4 9-6 6-2z" fill="#DE8038"/>
<path transform="translate(1468,513)" d="m0 0h7l13 5 7 7 5 9 2 15-4 10-2 3h-2l-2 4-9 6-9 2h-7l-9-3-6-4-8-9-3-9v-8l4-13 6-7 9-6z" fill="#DE8038"/>
<path transform="translate(251,1127)" d="m0 0 6 1 11 8 9 10 8 16 3 11v21l-3 12-6 12-3 1v-2l-9 3-1 2-5-1-3-2v-2h-4v-2l-3-1-2-3-2-9 2-9 1-5-1-2 5-18v-3l1-11v-7l-3-8-2-3z" fill="#FDB804"/>
<path transform="translate(1820,103)" d="m0 0 5 1 11 8 9 10 8 16 3 11v22l-2 10 11 11 10 14 7 14 1 9h-4v-2l-10-1h-3l-5-3-3-3-3-9-4-11-3-10-7-12-3-5-8-16-4-6-1-8-1-3v-12-4l-5-12v-8z" fill="#FDB804"/>
<path transform="translate(1728,313)" d="m0 0 12 5 8 3 7 1h11l14-4 7-1h10l4 2 4 4 7 5v2l4 1 3 3 5 2 1 2v6l-2 4-12 3-9 1h-23l-15-3-15-6-13-8-11-9-3-3 1-5 2-4z" fill="#FDB805"/>
<path transform="translate(342,672)" d="m0 0h105l100 1h892l180-1 27 2 15 3 4 3-7-1-9-2-11-1h-1160l-84-1h-52l-17 4-10 5h-2v-2l17-7z" fill="#FFC482"/>
<path transform="translate(746,1946)" d="m0 0 17 1 2-1 2 1 39 1 9 2v1h-462l1-4h30l6 1h200l137-1z" fill="#E5E7E7"/>
<path transform="translate(457,797)" d="m0 0h84l66 1 1 4-1-2h-256l1-2h21z" fill="#FFC482"/>
<path transform="translate(217,1695)" d="m0 0h11l10 3 6 4 7 7 5 10 1 3v12l-4 10-7 8-9 6-9 3h-8l-13-4-10-9-5-9-1-6v-11l4-11 9-10 9-5zm0 2-12 6-8 9-3 7-1 10 3 13 3 5 5 5 8 5 8 2h9l10-4 8-7 6-9 2-4v-12l-4-11-7-8-4-3-10-4z" fill="#B1B3B3"/>
<path transform="translate(985,1695)" d="m0 0h11l10 3 9 7 6 7 4 12v10l-4 10-9 10-11 6-4 1h-10l-13-5-9-8-5-10-1-7v-8l3-9 4-6 7-7zm4 1-10 3-9 7-7 9-2 7v11l4 12 6 7 8 5 8 2h10l11-4 8-7 5-8 2-4v-14l-5-12-7-7-12-6z" fill="#B1B3B3"/>
<path transform="translate(1369,836)" d="m0 0h1v30l-3 29-3 17-3 3 1-7-1-2 1-4v-6l1-1v-12l1-9 1-1 1-19h2v-15z" fill="#E0DAD2"/>
<path transform="translate(193,1504)" d="m0 0h150v1l-104 1-22 1h-23z" fill="#3BA3F3"/>
<path transform="translate(215,1120)" d="m0 0h16l3 2-1 5 2 1-12 2-3 1-6-2-1-7z" fill="#FEB909"/>
<path transform="translate(247,96)" d="m0 0h16v4h2l1 4-8 2h-8l-7-2 2-1v-6z" fill="#FEB908"/>
<path transform="translate(1943,351)" d="m0 0v3l-7 9-8 8-11 7-4 1 3-4h2l2-5 11-9 8-8z" fill="#FECB0A"/>
<path transform="translate(571,193)" d="m0 0 5 1h13l3 3-2 4h-15l-6-1-2-4z" fill="#FEB804"/>
<path transform="translate(1055,1571)" d="m0 0 8 4v2l6-1 11 6 4 3-1 2-2 1v-2h-4l-1-1-2 1-6-1v-2l-5-2-8-9z" fill="#F82C61"/>
<path transform="translate(343,1343)" d="m0 0v3l-7 9-8 8-11 7-2-1 10-10 3-1v-2l8-6 5-5z" fill="#FECB0A"/>
<path transform="translate(1684,647)" d="m0 0h3l-1 5-8 13-5 6-2-2 1-5 4-6z" fill="#FECA0A"/>
<path transform="translate(1365,898)" d="m0 0h1l-1 16-3 27-2 3-1-20 1-8 3-4z" fill="#DFD9CF"/>
<path transform="translate(1366,873)" d="m0 0h1l-1 25-2 14-3 3 1-7-1-2 1-4v-6l1-1v-12l1-8z" fill="#E6E8E8"/>
<path transform="translate(1313,1119)" d="m0 0 2 4 2 13 1 7v14h-2l-1-11-1-1-1-12z" fill="#E0DED9"/>
<path transform="translate(1075,1584)" d="m0 0h2v2h8l5 3 1 2h-5l-1 2-14-7z" fill="#E6265F"/>
<path transform="translate(1068,1576)" d="m0 0 12 6 4 3-1 2-2 1v-2h-4l-1-1-2 1-3-2h2l-1-3-6-3z" fill="#FD2E61"/>
<path transform="translate(864,800)" d="m0 0h3l-1 28h-1z" fill="#E3275E"/>
<path transform="translate(353,403)" d="m0 0h1l1 19-3 3v-20z" fill="#F5AA29"/>
<path transform="translate(436,321)" d="m0 0h15l-4 1v2l-4 2-5-2z" fill="#FEB804"/>
<path transform="translate(1696,248)" d="m0 0h1v10h2v8l-2 4-1-3z" fill="#F0A123"/>
<path transform="translate(570,192)" d="m0 0h17l2 2-17 1-3-2z" fill="#FECA16"/>
<path transform="translate(1470,362)" d="m0 0h1l1 5v7l-3-1-2-6z" fill="#FDC815"/>
<path transform="translate(1276,1754)" d="m0 0 3 1-1 5-8-1 3-1v-2z" fill="#E5E7E7"/>
<path transform="translate(1067,1579)" d="m0 0 6 2v3l-5 1v-2l-3-1 3-1z" fill="#E33063"/>
</svg>
